#define logo_width 40
#define logo_height 40
static char logo_bits[] = {
  0x00, 0x00, 0x00, 0x00, 0x00, 0x00, 0x00, 0x00, 0x00, 0x00, 0x00, 0x00, 
  0x00, 0x00, 0x00, 0x00, 0x00, 0x00, 0x00, 0x00, 0x00, 0x00, 0x00, 0x00, 
  0x00, 0x00, 0x00, 0x00, 0x00, 0x00, 0x00, 0xF8, 0xFF, 0x00, 0x00, 0x00, 
  0xF8, 0xFF, 0x03, 0x00, 0x00, 0xF8, 0xFF, 0x07, 0x00, 0x00, 0x38, 0x00, 
  0x0F, 0x00, 0x00, 0x38, 0x00, 0x1E, 0x00, 0x00, 0x38, 0x00, 0x1C, 0x00, 
  0x00, 0x38, 0x00, 0x1C, 0x00, 0x00, 0x38, 0x00, 0x18, 0x00, 0x00, 0x38, 
  0x00, 0x18, 0x00, 0x00, 0x38, 0x00, 0x1C, 0x00, 0x00, 0x38, 0x00, 0x1C, 
  0x00, 0x00, 0x38, 0x00, 0x0E, 0x00, 0x00, 0x38, 0x00, 0x0F, 0x00, 0x00, 
  0xF8, 0xFF, 0x07, 0x00, 0x00, 0xF8, 0xFF, 0x03, 0x00, 0x00, 0xF8, 0x7F, 
  0x00, 0x00, 0x00, 0x38, 0x00, 0x00, 0x00, 0x00, 0x38, 0x00, 0x00, 0x00, 
  0x00, 0x38, 0x00, 0x00, 0x00, 0x00, 0x38, 0x00, 0x00, 0x00, 0x00, 0x38, 
  0x00, 0x00, 0x00, 0x00, 0x38, 0x00, 0x00, 0x00, 0x00, 0x38, 0x00, 0x00, 
  0x00, 0x00, 0x38, 0x00, 0x00, 0x00, 0x00, 0x38, 0x00, 0x00, 0x00, 0x00, 
  0xF8, 0xFF, 0x1F, 0x00, 0x00, 0xF8, 0xFF, 0x1F, 0x00, 0x00, 0xF8, 0xFF, 
  0x1F, 0x00, 0x00, 0x00, 0x00, 0x00, 0x00, 0x00, 0x00, 0x00, 0x00, 0x00, 
  0x00, 0x00, 0x00, 0x00, 0x00, 0x00, 0x00, 0x00, 0x00, 0x00, 0x00, 0x00, 
  0x00, 0x00, 0x00, 0x00, 0x00, 0x00, 0x00, 0x00, };
